<svg width="911" height="911" viewBox="0 0 911 911" fill="none" xmlns="http://www.w3.org/2000/svg">
<path d="M826 520.117H625.148V715.556C625.148 573.842 759.049 526.216 826 520.117Z" fill="#73AA7F" stroke="#73AA7F" stroke-width="18"/>
<rect x="86" y="491" width="599.674" height="235.704" rx="60" fill="#73AA7F"/>
<path d="M272.371 608.852C272.371 632.162 253.719 651.059 230.712 651.059C207.704 651.059 189.052 632.162 189.052 608.852C189.052 585.541 207.704 566.645 230.712 566.645C253.719 566.645 272.371 585.541 272.371 608.852Z" fill="white"/>
<path d="M428.044 608.852C428.044 632.162 409.147 651.059 385.837 651.059C362.526 651.059 343.629 632.162 343.629 608.852C343.629 585.541 362.526 566.645 385.837 566.645C409.147 566.645 428.044 585.541 428.044 608.852Z" fill="white"/>
<path d="M582.622 608.852C582.622 632.162 563.725 651.059 540.414 651.059C517.104 651.059 498.207 632.162 498.207 608.852C498.207 585.541 517.104 566.645 540.414 566.645C563.725 566.645 582.622 585.541 582.622 608.852Z" fill="white"/>
<path d="M86 179.795H297.019V383.188C297.019 235.706 156.34 186.142 86 179.795Z" fill="#9B75EC" stroke="#9B75EC" stroke-width="18"/>
<rect x="219.558" y="159" width="606.442" height="236.113" rx="60" fill="#9B75EC"/>
<path d="M408.031 277.056C408.031 300.407 389.169 319.337 365.902 319.337C342.634 319.337 323.772 300.407 323.772 277.056C323.772 253.705 342.634 234.775 365.902 234.775C389.169 234.775 408.031 253.705 408.031 277.056Z" fill="white"/>
<path d="M565.463 277.056C565.463 300.407 546.353 319.337 522.779 319.337C499.205 319.337 480.095 300.407 480.095 277.056C480.095 253.705 499.205 234.775 522.779 234.775C546.353 234.775 565.463 253.705 565.463 277.056Z" fill="white"/>
<path d="M721.785 277.056C721.785 300.407 702.675 319.337 679.101 319.337C655.528 319.337 636.417 300.407 636.417 277.056C636.417 253.705 655.528 234.775 679.101 234.775C702.675 234.775 721.785 253.705 721.785 277.056Z" fill="white"/>
</svg>
